<svg xmlns="http://www.w3.org/2000/svg" xmlns:xlink="http://www.w3.org/1999/xlink" fill="none" version="1.1" width="26" height="26" viewBox="0 0 26 26"><path d="M0 7.100688934326172C4.90527396329193e-16 3.1790867226055584 3.1790867226055592 0 7.100688934326172 0L18.899309158325195 0C22.820911370045806 0 25.999998092651367 3.1790867226055592 25.999998092651367 7.100688934326172L25.999998092651367 18.899311065673828C25.999998092651367 22.82091327739444 22.820911370045806 26 18.899309158325195 26L7.100688934326172 26C3.1790867226055592 26 0 22.82091327739444 0 18.899311065673828Z" fill="#EDF5FF" fill-opacity="1"/><path d="M0.5 7.600688934326172C0.5000000000000004 3.6790867226055584 3.6790867226055592 0.5 7.600688934326172 0.5L18.399309158325195 0.5C22.320911370045806 0.5 25.499998092651367 3.6790867226055592 25.499998092651367 7.600688934326172L25.499998092651367 18.399311065673828C25.499998092651367 22.32091327739444 22.320911370045806 25.5 18.399309158325195 25.5L7.600688934326172 25.5C3.6790867226055592 25.5 0.5 22.32091327739444 0.5 18.399311065673828Z" fill-opacity="0" stroke-opacity="1" stroke="#A4C2FF" fill="none" stroke-width="1"/><g><path d="M5.981149845185791,16.99999713897705L9.51914288418579,7.787389738977051L10.83253668418579,7.787389738977051L14.60304398418579,16.99999713897705L13.214240584185792,16.99999713897705L12.139646084185792,14.20982173897705L8.287443884185791,14.20982173897705L7.275690784185791,16.99999713897705L5.981149845185791,16.99999713897705ZM8.63935778418579,13.216920838977051L11.762595184185791,13.216920838977051L10.801115484185791,10.66554403897705Q10.361223184185791,9.502970738977051,10.147561084185792,8.75515363897705Q9.971603884185791,9.641222938977052,9.651110684185792,10.51472373897705L8.63935778418579,13.216920838977051ZM15.407419684185792,16.99999713897705L15.407419684185792,7.787389738977051L16.538571384185794,7.787389738977051L16.538571384185794,16.99999713897705L15.407419684185792,16.99999713897705ZM18.266721384185793,16.99999713897705L18.266721384185793,7.787389738977051L19.397873384185793,7.787389738977051L19.397873384185793,16.99999713897705L18.266721384185793,16.99999713897705Z" fill="#0080FE" fill-opacity="1"/></g></svg>